<svg width="138" height="25" viewBox="0 0 138 25" fill="none" xmlns="http://www.w3.org/2000/svg">
<path d="M108.848 11.0468C110.083 11.0468 111.253 11.0468 112.423 11.0468C112.423 11.6951 112.423 12.3434 112.423 13.0566C112.488 13.0566 112.488 13.1214 112.553 13.1214C113.073 12.2138 113.723 11.5006 114.763 11.3061C115.673 11.1116 116.713 11.1116 117.753 10.9819C117.688 11.1764 117.688 11.3061 117.688 11.4358C117.298 12.4083 116.973 13.3807 116.583 14.3532C116.518 14.6126 116.388 14.7422 116.063 14.6774C115.868 14.6774 115.673 14.6774 115.413 14.6774C113.593 14.6774 112.618 15.585 112.618 17.4004C112.553 19.6047 112.618 21.809 112.553 24.0133C112.553 24.2078 112.553 24.4023 112.553 24.5968C111.318 24.5968 110.083 24.5968 108.848 24.5968C108.848 20.0585 108.848 15.585 108.848 11.0468Z" fill="white"/>
<path d="M122.369 24.5959C121.134 24.5959 119.964 24.5959 118.728 24.5959C118.728 22.9103 118.728 21.2895 118.728 19.6687C118.728 18.0478 118.728 16.3622 118.728 14.6765C118.273 14.6765 117.883 14.6765 117.363 14.6765C117.688 13.7041 118.078 12.7964 118.403 11.9536C118.728 11.0459 118.728 11.1108 119.703 11.1108C120.614 11.1108 121.524 11.1108 122.434 11.1108C122.369 15.5842 122.369 20.0577 122.369 24.5959Z" fill="white"/>
<path d="M58.144 19.1501C54.6987 19.1501 51.2535 19.1501 47.8082 19.1501C47.8082 20.0577 48.7182 21.0302 49.8883 21.4192C51.3835 21.873 53.2686 21.8082 54.6337 19.7335C55.6088 20.317 56.5189 20.8357 57.494 21.4192C56.1289 24.1422 52.4886 25.6333 48.9133 24.5312C45.468 23.429 43.4528 19.7335 44.3629 16.1678C45.273 12.5371 48.9133 10.268 52.5536 10.9163C56.1289 11.5646 58.6641 14.6118 58.144 19.1501ZM47.9382 16.1678C50.1484 16.1678 52.2285 16.1678 54.3737 16.1678C54.1787 15.0656 53.0086 14.1579 51.7085 14.0931C49.9533 13.8986 48.5232 14.6766 47.9382 16.1678Z" fill="white"/>
<path d="M71.6646 24.5963C70.3645 24.5963 69.1944 24.5963 67.8943 24.5963C67.8943 24.4018 67.8943 24.2073 67.8943 24.0777C67.8943 21.6789 67.8943 19.2801 67.8943 16.8813C67.8943 16.5571 67.8943 16.2978 67.8293 15.9736C67.6343 14.8066 66.8542 14.0286 65.8142 13.9638C64.449 13.8341 63.474 14.4176 63.0839 15.6495C62.8889 16.1681 62.8239 16.8164 62.8239 17.3351C62.8239 19.5394 62.8239 21.7437 62.8239 23.948C62.8239 24.1425 62.8239 24.337 62.8239 24.5315C61.5888 24.5315 60.4187 24.5315 59.1836 24.5315C59.1836 20.0581 59.1836 15.5846 59.1836 11.0463C60.3537 11.0463 61.5888 11.0463 62.8239 11.0463C62.8239 11.5002 62.8239 11.8892 62.8239 12.4727C63.0839 12.2782 63.2139 12.0837 63.4089 11.954C64.9691 10.5925 66.7892 10.398 68.6744 11.0463C70.4945 11.6947 71.4046 13.121 71.6646 14.9363C71.7297 15.455 71.7947 15.9736 71.7947 16.4923C71.7947 18.9559 71.7947 21.4196 71.7947 23.8832C71.6646 24.1425 71.6646 24.337 71.6646 24.5963Z" fill="white"/>
<path d="M137.645 24.5959C136.41 24.5959 135.24 24.5959 134.005 24.5959C134.005 24.1421 134.005 23.6883 134.005 23.1696C133.875 23.2345 133.81 23.2993 133.745 23.2993C131.535 25.5684 127.83 25.2443 125.489 23.1048C123.669 21.4191 123.149 19.2148 123.344 16.8809C123.539 14.8711 124.384 13.2502 126.009 12.0184C128.22 10.3976 131.73 10.2679 133.745 12.2129C133.745 12.2129 133.81 12.2129 133.875 12.2778C133.875 9.81412 133.875 7.35048 133.875 4.88684C135.11 4.88684 136.345 4.88684 137.58 4.88684C137.645 11.4349 137.645 17.983 137.645 24.5959ZM134.07 17.7885C134.07 15.7787 132.575 14.1579 130.56 14.1579C128.48 14.1579 126.919 15.7139 126.919 17.7885C126.919 19.7983 128.545 21.484 130.56 21.484C132.575 21.484 134.07 19.8632 134.07 17.7885Z" fill="white"/>
<path d="M83.2358 24.532C83.2358 24.0781 83.2358 23.6243 83.2358 23.2353C83.1708 23.2353 83.1058 23.2353 83.1058 23.2353C81.0256 25.4396 77.5803 25.3748 75.2401 23.5595C73.0299 21.8738 72.3799 19.5399 72.6399 16.9466C72.8349 14.6774 73.875 12.8621 75.8252 11.6951C78.0354 10.3985 81.0906 10.3985 83.2358 12.3435C83.2358 9.81498 83.2358 7.35135 83.2358 4.82288C84.5359 4.82288 85.706 4.82288 86.9411 4.82288C86.9411 11.371 86.9411 17.9839 86.9411 24.532C85.706 24.532 84.5359 24.532 83.2358 24.532ZM83.3658 17.7894C83.3658 15.7147 81.8707 14.1588 79.8555 14.1588C77.7753 14.1588 76.2152 15.7796 76.2152 17.7894C76.2152 19.864 77.8403 21.42 79.8555 21.42C81.8057 21.4848 83.3658 19.864 83.3658 17.7894Z" fill="white"/>
<path d="M107.028 9.61955C105.923 10.2679 104.818 10.9162 103.778 11.5645C103.258 10.981 102.868 10.3327 102.348 9.81405C99.3576 6.96142 93.3771 7.80424 91.882 12.926C90.5819 17.3346 93.9621 21.4839 98.5125 21.2246C100.918 21.0949 102.608 19.9928 103.583 17.7885C103.648 17.594 103.713 17.3995 103.843 17.0753C103.648 17.0753 103.453 17.0753 103.258 17.0753C101.503 17.0753 99.8126 17.0753 98.0575 17.0753C97.6675 17.0753 97.5374 16.9456 97.5374 16.5566C97.5374 15.5841 97.5374 14.5468 97.5374 13.5095C100.983 13.5095 104.428 13.5095 107.808 13.5095C108.328 18.9554 105.403 23.6234 100.333 24.6607C94.6772 25.8277 88.9567 22.5861 87.9816 16.3621C87.1366 10.981 90.3868 5.9241 95.7823 4.82194C99.8776 3.97912 104.298 5.40544 106.703 9.10089C106.768 9.23056 106.898 9.42506 107.028 9.61955Z" fill="white"/>
<path d="M120.614 8.97148C119.379 8.97148 118.404 7.99899 118.339 6.76717C118.339 5.53536 119.314 4.56287 120.614 4.56287C121.849 4.56287 122.824 5.53536 122.824 6.76717C122.824 7.93416 121.784 8.97148 120.614 8.97148Z" fill="white"/>
<path d="M28.6963 21.2898C29.8014 20.3822 30.9715 19.5394 32.0766 18.6317C32.5316 19.1504 32.9867 19.7339 33.5067 20.1229C34.6118 21.0305 35.8469 21.4195 37.277 21.1602C38.4471 20.9008 39.2922 20.058 39.4222 18.8262C39.4872 17.9834 39.0972 17.3999 38.4471 17.0109C37.602 16.6219 36.692 16.2977 35.8469 15.9736C35.0018 15.6494 34.0917 15.3901 33.2467 15.0659C30.9715 14.2231 29.6714 12.7319 29.6714 10.2683C29.6714 7.8695 30.9065 6.18386 33.0517 5.21137C35.9119 3.91472 40.2673 4.30371 42.9325 7.41567C41.8924 8.19367 40.9173 8.97165 39.8772 9.74965C39.7472 9.61998 39.6822 9.55515 39.6172 9.42548C38.5121 8.064 36.627 7.54534 35.0668 8.12883C34.2218 8.45299 33.7017 9.03649 33.6367 9.94415C33.5717 10.787 34.0267 11.3705 34.7418 11.6946C35.8469 12.2133 37.017 12.6023 38.1871 12.9913C39.4222 13.4451 40.7223 13.8989 41.6974 14.8066C43.4525 16.3626 43.9076 18.9559 42.8025 21.225C41.8274 23.2997 40.0722 24.4666 37.7971 24.7908C34.2868 25.2446 31.2965 24.2073 28.8913 21.5492C28.8263 21.4843 28.7613 21.4195 28.6963 21.2898Z" fill="white"/>
<path opacity="0.62" d="M24.4708 0.349976H8.02441V16.7526H24.4708V0.349976Z" fill="white"/>
<path opacity="0.62" d="M16.346 8.58337H0.224609V24.4025H16.346V8.58337Z" fill="white"/>
</svg>
